/* XPM */
static char * icon_xpm[] = {
"32 32 4 1",
" 	c None",
".	c #000000",
"+	c #B20000",
"@	c #3C0000",
"                                ",
"                                ",
"           .......              ",
"          .+++++++.             ",
"          .++++++++.            ",
"          .++++++@+.            ",
"          .++++@+++.   ..       ",
"          .++++@@@@.  .++.      ",
"          .++++++++.  .++.      ",
"           .+++++..   .++.      ",
"            .+++.     .++.      ",
"      .......+++.     .++.      ",
"     .++++++++++.......++.      ",
"     .+++++++++++++++++++.      ",
"     .++.....++++++++++++.      ",
"     .++.   .+++.........       ",
"     .++.   .+++.               ",
"     .++.   .+++.               ",
"     .++.   .+++.               ",
"     .++.   .+++..              ",
"      ..    .+++++.....         ",
"           .+++++++++++.        ",
"          .+++++++++++++.       ",
"         .+++........++++.      ",
"        .++++.       ..+++.     ",
"      ..++++.         .++++.    ",
"   ...+++++.           .+++.    ",
"  .++++++++.            .++...  ",
"  .++++....             .+++++. ",
"  .++..                 .+++++. ",
"   ..                    .....  ",
"                                "};
