/* XPM */
static const char * texture_xpm[] = {
"24 24 4 1",
" 	c None",
".	c #000000",
"+	c #777777",
"@	c #FFFFFF",
"                        ",
" ...................... ",
" .++++++++++++++++++++. ",
" .+..................+. ",
" .+.@@@@+.@@@@@@@@@+.+. ",
" .+.@@@@+.@@@@@@@@@+.+. ",
" .+.@@@@+.@@@@@@@@@+.+. ",
" .+.@@@@+.@@@@@@@@@+.+. ",
" .+.+++++.++++++++++.+. ",
" .+..................+. ",
" .+.@@@@@@@@@+.@@@@+.+. ",
" .+.@@@@@@@@@+.@@@@+.+. ",
" .+.@@@@@@@@@+.@@@@+.+. ",
" .+.@@@@@@@@@+.@@@@+.+. ",
" .+.++++++++++.+++++.+. ",
" .+..................+. ",
" .+.@@+.@@@@@@@@@@@+.+. ",
" .+.@@+.@@@@@@@@@@@+.+. ",
" .+.@@+.@@@@@@@@@@@+.+. ",
" .+.+++.++++++++++++.+. ",
" .+..................+. ",
" .++++++++++++++++++++. ",
" ...................... ",
"                        "};
